G04 ================== begin FILE IDENTIFICATION RECORD ==================*
G04 Layout Name:  E:/source/repos/PCB/allegro/PROTOGEN.brd*
G04 Film Name:    BOTTOM*
G04 File Format:  Gerber RS274X*
G04 File Origin:  Cadence Allegro 16.6-2015-S108*
G04 Origin Date:  Thu Aug 05 20:57:01 2021*
G04 *
G04 Layer:  ETCH/BOTTOM*
G04 Layer:  PIN/BOTTOM*
G04 Layer:  VIA CLASS/BOTTOM*
G04 *
G04 Offset:    (0.000 0.000)*
G04 Mirror:    No*
G04 Mode:      Positive*
G04 Rotation:  0*
G04 FullContactRelief:  No*
G04 UndefLineWidth:     0.010*
G04 ================== end FILE IDENTIFICATION RECORD ====================*
%FSLAX34Y34*MOMM*%
%IR0*IPPOS*OFA0.00000B0.00000*MIA0B0*SFA1.00000B1.00000*%
%ADD12C,1.524*%
%ADD13C,.61*%
%ADD11C,.9*%
%ADD10C,.635*%
%ADD14C,.5*%
%ADD15C,.254*%
%ADD16C,.754*%
%ADD18C,1.31*%
%ADD17C,2.036*%
G75*
%LPD*%
G75*
G36*
G01X50420Y25410D02*
Y50420D01*
X25410D01*
Y203180D01*
X32120D01*
Y330220D01*
X25410D01*
Y369580D01*
X50420D01*
Y394590D01*
X499580D01*
Y369580D01*
X524590D01*
Y50420D01*
X499580D01*
Y25410D01*
X50420D01*
G37*
%LPC*%
G75*
G36*
G01X148290Y233510D02*
X200930D01*
G02Y223390I2420J-5060D01*
G01X144090D01*
X134640Y232840D01*
Y359470D01*
G02X144760I5060J8830D01*
G01Y237040D01*
X148290Y233510D01*
G37*
G36*
G01X465140Y193020D02*
X308900D01*
G02Y200680I-4100J3830D01*
G01X461960D01*
X466070Y204790D01*
Y261940D01*
X474660Y270530D01*
X492220D01*
G02Y262870I9430J-3830D01*
G01X477840D01*
X473730Y258760D01*
Y201610D01*
X465140Y193020D01*
G37*
G36*
G01X477850Y180320D02*
X296200D01*
G02Y187980I-4100J3830D01*
G01X474670D01*
X478770Y192080D01*
Y232730D01*
X491170Y245130D01*
X492220D01*
G02X493590Y235080I9431J-3833D01*
G03X492060Y235180I-809J-619D01*
G01X486430Y229550D01*
Y188900D01*
X477850Y180320D01*
G37*
G36*
G01X397800Y118130D02*
X441420D01*
G02Y110470I9430J-3830D01*
G01X397800D01*
G02Y118130I-4100J3830D01*
G37*
G36*
G01X405420Y92730D02*
X441420D01*
G02Y85070I9430J-3830D01*
G01X405420D01*
G02Y92730I-4100J3830D01*
G37*
G36*
G01X416850Y67330D02*
X441420D01*
G02Y59670I9430J-3830D01*
G01X416850D01*
G02Y67330I-4100J3830D01*
G37*
G36*
G01X207300Y281920D02*
G02X201220Y291000I-4099J3831D01*
G03X201300Y292870I-361J952D01*
G02X207810Y301770I2412J5067D01*
G01X260380D01*
G03X261350Y303100I0J1018D01*
G02X262870Y308900I5348J1697D01*
G01Y341950D01*
X267650Y346730D01*
X500700D01*
X505480Y341950D01*
Y301530D01*
G02X497820I-3830J-9430D01*
G01Y338770D01*
X497520Y339070D01*
X270830D01*
X270530Y338770D01*
Y308900D01*
G02X272160Y303530I-3832J-4096D01*
G03X273160Y302280I995J-229D01*
G01X307050D01*
G02Y294620I4100J-3830D01*
G01X271650D01*
X271140Y294110D01*
X207810D01*
G02X205690Y292690I-4101J3829D01*
G03X205610Y290820I361J-952D01*
G02X207300Y289580I-2416J-5065D01*
G01X315910D01*
X318240Y291910D01*
Y292120D01*
G02X323870Y286490I5610J-20D01*
G01X323660D01*
X319090Y281920D01*
X207300D01*
G37*
G54D18*
X52000Y85900D03*
Y129900D03*
G54D17*
X139700Y63500D03*
Y127000D03*
Y88900D03*
Y152400D03*
X114300Y368300D03*
X171450D03*
X196850D03*
X222250D03*
X254000D03*
X279400D03*
X450850Y139700D03*
Y215900D03*
Y241300D03*
Y266700D03*
Y292100D03*
X501650Y63500D03*
X476250D03*
X501650Y139700D03*
Y114300D03*
Y88900D03*
X476250D03*
Y114300D03*
Y139700D03*
X501650Y190500D03*
Y215900D03*
%LPD*%
G75*
G54D10*
X25000Y25000D03*
Y395000D03*
X525000Y25000D03*
Y395000D03*
G54D11*
X52000Y85900D03*
Y129900D03*
G54D12*
X139700Y63500D03*
Y88900D03*
Y127000D03*
Y152400D03*
Y368300D03*
X114300D03*
X171450D03*
X196850D03*
X222250D03*
X254000D03*
X279400D03*
X450850Y63500D03*
Y88900D03*
Y114300D03*
Y139700D03*
Y215900D03*
Y241300D03*
Y266700D03*
Y292100D03*
X501650Y63500D03*
X476250D03*
X501650Y88900D03*
Y114300D03*
Y139700D03*
X476250Y88900D03*
Y114300D03*
Y139700D03*
X501650Y190500D03*
Y215900D03*
Y241300D03*
Y266700D03*
Y292100D03*
G54D13*
X101600Y91900D03*
X85550Y349250D03*
X184150Y50800D03*
X205700Y137200D03*
X218350Y184150D03*
X184150Y165100D03*
X203350Y228450D03*
X203200Y285750D03*
X217000Y316400D03*
X203710Y297940D03*
X292100Y184150D03*
X266700Y269050D03*
Y304800D03*
X304800Y196850D03*
X355600Y277050D03*
X323850Y292100D03*
X311150Y298450D03*
X412750Y63500D03*
X374650Y120650D03*
X393700Y114300D03*
X401320Y88900D03*
X412750Y323850D03*
G54D14*
G01X139700Y368300D02*
Y234940D01*
X146190Y228450D01*
X203350D01*
G54D15*
G01X203200Y285750D02*
X317500D01*
X323850Y292100D01*
G01X311150Y298450D02*
X270060D01*
X269550Y297940D01*
X203710D01*
G01X266700Y304800D02*
Y340360D01*
X269240Y342900D01*
X499110D01*
X501650Y340360D01*
Y292100D01*
G01X304800Y196850D02*
X463550D01*
X469900Y203200D01*
Y260350D01*
X476250Y266700D01*
X501650D01*
G01X292100Y184150D02*
X476260D01*
X482600Y190490D01*
Y231140D01*
X492760Y241300D01*
X501650D01*
G01X450850Y63500D02*
X412750D01*
G01X393700Y114300D02*
X450850D01*
G01Y88900D02*
X401320D01*
G54D16*
G01X139700Y141710D02*
Y152400D01*
G01Y78210D02*
Y88900D01*
G01D02*
Y99590D01*
G01X129010Y88900D02*
X139700D01*
G01D02*
X150390D01*
G01X139700Y152400D02*
Y163090D01*
G01X129010Y152400D02*
X139700D01*
G01D02*
X150390D01*
G01X171450Y357610D02*
Y368300D01*
G01D02*
Y378990D01*
G01X160760Y368300D02*
X171450D01*
G01D02*
X182140D01*
G01X254000Y357610D02*
Y368300D01*
G01D02*
Y378990D01*
G01X243310Y368300D02*
X254000D01*
G01D02*
X264690D01*
G01X440160Y215900D02*
X450850D01*
G01X476250Y52810D02*
Y63500D01*
G01D02*
Y74190D01*
G01X465560Y63500D02*
X476250D01*
G01D02*
X486940D01*
G01X476250Y129010D02*
Y139700D01*
G01D02*
Y150390D01*
G01X465560Y139700D02*
X476250D01*
G01D02*
X486940D01*
G01X476250Y103610D02*
Y114300D01*
G01D02*
Y124990D01*
G01X465560Y114300D02*
X476250D01*
G01D02*
X486940D01*
G01X476250Y78210D02*
Y88900D01*
G01D02*
Y99590D01*
G01X465560Y88900D02*
X476250D01*
G01D02*
X486940D01*
G01X501650Y205210D02*
Y215900D01*
G01D02*
Y226590D01*
G01X490960Y215900D02*
X501650D01*
G01D02*
X512340D01*
G01X450850Y205210D02*
Y215900D01*
G01D02*
Y226590D01*
G01Y215900D02*
X461540D01*
M02*
