G04 ================== begin FILE IDENTIFICATION RECORD ==================*
G04 Layout Name:  E:/source/repos/PCB/allegro/PROTOGEN.brd*
G04 Film Name:    DRL_data*
G04 File Format:  Gerber RS274X*
G04 File Origin:  Cadence Allegro 16.6-2015-S108*
G04 Origin Date:  Tue Aug 03 00:46:39 2021*
G04 *
G04 Layer:  MANUFACTURING/NCLEGEND-1-2*
G04 Layer:  BOARD GEOMETRY/OUTLINE*
G04 *
G04 Offset:    (0.000 0.000)*
G04 Mirror:    No*
G04 Mode:      Positive*
G04 Rotation:  0*
G04 FullContactRelief:  No*
G04 UndefLineWidth:     0.010*
G04 ================== end FILE IDENTIFICATION RECORD ====================*
%FSLAX34Y34*MOMM*%
%IR0*IPPOS*OFA0.00000B0.00000*MIA0B0*SFA1.00000B1.00000*%
%AMMACRO13*
1,1,.01,.165,0.0*
20,1,.01,.165,0.0,-.165,0.0,0.0*
1,1,.01,-.165,0.0*
1,1,.01,0.0,.165*
20,1,.01,0.0,.165,0.0,-.165,0.0*
1,1,.01,0.0,-.165*
%
%ADD13MACRO13*%
%AMMACRO12*
1,1,.01,.457,.457*
20,1,.01,.457,.457,.457,-.457,0.0*
1,1,.01,.457,-.457*
20,1,.01,.457,-.457,-.457,-.457,0.0*
1,1,.01,-.457,-.457*
20,1,.01,-.457,-.457,-.457,.457,0.0*
1,1,.01,-.457,.457*
20,1,.01,-.457,.457,.457,.457,0.0*
1,1,.01,.457,.457*
%
%ADD12MACRO12*%
%AMMACRO11*
1,1,.01,.45,0.0*
20,1,.01,.45,0.0,.225,.389711,0.0*
1,1,.01,.225,.389711*
20,1,.01,.225,.389711,-.225,.389711,0.0*
1,1,.01,-.225,.389711*
20,1,.01,-.225,.389711,-.45,0.0,0.0*
1,1,.01,-.45,0.0*
20,1,.01,-.45,0.0,-.225,-.389711,0.0*
1,1,.01,-.225,-.389711*
20,1,.01,-.225,-.389711,.225,-.389711,0.0*
1,1,.01,.225,-.389711*
20,1,.01,.225,-.389711,.45,0.0,0.0*
1,1,.01,.45,0.0*
%
%ADD11MACRO11*%
%AMMACRO10*
1,1,.01,0.0,1.5875*
20,1,.01,0.0,1.5875,-1.374815,.79375,0.0*
1,1,.01,-1.374815,.79375*
20,1,.01,-1.374815,.79375,-1.374815,-.79375,0.0*
1,1,.01,-1.374815,-.79375*
20,1,.01,-1.374815,-.79375,0.0,-1.5875,0.0*
1,1,.01,0.0,-1.5875*
20,1,.01,0.0,-1.5875,1.374815,-.79375,0.0*
1,1,.01,1.374815,-.79375*
20,1,.01,1.374815,-.79375,1.374815,.79375,0.0*
1,1,.01,1.374815,.79375*
20,1,.01,1.374815,.79375,0.0,1.5875,0.0*
1,1,.01,0.0,1.5875*
%
%ADD10MACRO10*%
%ADD14C,.01*%
%ADD15C,.05*%
G75*
%LPD*%
G75*
G54D10*
X-266850Y-547600D03*
X25000Y25000D03*
Y395000D03*
X525000Y25000D03*
Y395000D03*
G54D11*
X-266850Y-484100D03*
G54D12*
Y-420600D03*
X139700Y63500D03*
Y88900D03*
Y127000D03*
Y152400D03*
Y368300D03*
X114300D03*
X171450D03*
X196850D03*
X222250D03*
X254000D03*
X279400D03*
X450850Y63500D03*
Y88900D03*
Y114300D03*
Y139700D03*
Y215900D03*
Y241300D03*
Y266700D03*
Y292100D03*
X501650Y63500D03*
X476250D03*
X501650Y88900D03*
Y114300D03*
Y139700D03*
X476250Y88900D03*
Y114300D03*
Y139700D03*
X501650Y190500D03*
Y215900D03*
Y241300D03*
Y266700D03*
Y292100D03*
G54D13*
X-266850Y-357100D03*
X101600Y91900D03*
X85550Y349250D03*
X184150Y50800D03*
X205700Y137200D03*
X218350Y184150D03*
X184150Y165100D03*
X203350Y228450D03*
X203200Y285750D03*
X217000Y316400D03*
X203710Y297940D03*
X292100Y184150D03*
X266700Y269050D03*
Y304800D03*
X304800Y196850D03*
X355600Y277050D03*
X323850Y292100D03*
X311150Y298450D03*
X412750Y63500D03*
X374650Y120650D03*
X393700Y114300D03*
X401320Y88900D03*
X400050Y320500D03*
G54D14*
G01X-381000Y-515850D02*
X847100D01*
G01X-381000Y-452350D02*
X847100D01*
G01X-381000Y-325350D02*
X847100D01*
G01X-381000Y-388850D02*
X847100D01*
G01X-381000Y-261850D02*
X847100D01*
G01X-381000Y-198350D02*
X847100D01*
G01X-152700Y-261850D02*
Y-579350D01*
G01X327520Y-261850D02*
Y-579350D01*
G01X650290Y-261850D02*
Y-579350D01*
G01X-381000D02*
Y-133350D01*
X847100D01*
Y-579350D01*
X-381000D01*
G01X0Y0D02*
Y420000D01*
X550000D01*
Y0D01*
X0D01*
G54D15*
G01X-353060Y-309480D02*
Y-277730D01*
X-338100D01*
G01X-343610Y-293080D02*
X-353060D01*
G01X-318810Y-277730D02*
X-309370D01*
G01X-314090D02*
Y-309480D01*
G01X-318810D02*
X-309370D01*
G01X-280240Y-293610D02*
X-272360D01*
Y-303130D01*
X-274730Y-306310D01*
X-277480Y-308420D01*
X-281420Y-309480D01*
X-285360Y-308420D01*
X-288110Y-306310D01*
X-290470Y-303130D01*
X-292050Y-299430D01*
X-292840Y-295190D01*
Y-291490D01*
X-292050Y-288310D01*
X-290470Y-284610D01*
X-288110Y-281430D01*
X-285750Y-279320D01*
X-282600Y-277730D01*
X-279840D01*
X-276700Y-278790D01*
X-274330Y-280910D01*
G01X-259770Y-277730D02*
Y-300480D01*
X-258200Y-305250D01*
X-255050Y-308420D01*
X-251110Y-309480D01*
X-247170Y-308420D01*
X-244020Y-305250D01*
X-242450Y-300480D01*
Y-277730D01*
G01X-227490Y-309480D02*
Y-277730D01*
X-217650D01*
X-214500Y-279320D01*
X-212530Y-281430D01*
X-211750Y-285670D01*
X-212530Y-289900D01*
X-214900Y-292550D01*
X-217650Y-294130D01*
X-227490D01*
G01X-217650D02*
X-211750Y-309480D01*
G01X-180260D02*
X-196000D01*
Y-277730D01*
X-180260D01*
G01X-186560Y-293080D02*
X-196000D01*
G01X-201910Y-245980D02*
X-192070Y-214230D01*
X-182230Y-245980D01*
G01X-185770Y-234870D02*
X-198370D01*
G01X-168450Y-214230D02*
Y-245980D01*
X-152710D01*
G01X-136960Y-214230D02*
Y-245980D01*
X-121220D01*
G01X-74770Y-214230D02*
Y-236980D01*
X-73200Y-241750D01*
X-70050Y-244920D01*
X-66110Y-245980D01*
X-62170Y-244920D01*
X-59020Y-241750D01*
X-57450Y-236980D01*
Y-214230D01*
G01X-43670Y-245980D02*
Y-214230D01*
X-25570Y-245980D01*
Y-214230D01*
G01X-7850D02*
X1590D01*
G01X-3130D02*
Y-245980D01*
G01X-7850D02*
X1590D01*
G01X28360Y-214230D02*
Y-245980D01*
G01X19310Y-214230D02*
X37410D01*
G01X51580Y-241750D02*
X54730Y-244390D01*
X58280Y-245980D01*
X61420D01*
X64570Y-244390D01*
X66940Y-241750D01*
X68120Y-238040D01*
X67330Y-234340D01*
X65360Y-231160D01*
X61820Y-229050D01*
X57090Y-227990D01*
X54340Y-225870D01*
X53160Y-222170D01*
X53950Y-218460D01*
X55910Y-215820D01*
X58670Y-214230D01*
X61420D01*
X64180Y-215290D01*
X66540Y-217930D01*
G01X112990Y-245980D02*
X122830Y-214230D01*
X132670Y-245980D01*
G01X129130Y-234870D02*
X116530D01*
G01X146450Y-245980D02*
Y-214230D01*
X156290D01*
X159440Y-215820D01*
X161410Y-217930D01*
X162190Y-222170D01*
X161410Y-226400D01*
X159040Y-229050D01*
X156290Y-230630D01*
X146450D01*
G01X156290D02*
X162190Y-245980D01*
G01X193680D02*
X177940D01*
Y-214230D01*
X193680D01*
G01X187380Y-229580D02*
X177940D01*
G01X244070Y-214230D02*
X253510D01*
G01X248790D02*
Y-245980D01*
G01X244070D02*
X253510D01*
G01X271230D02*
Y-214230D01*
X289330Y-245980D01*
Y-214230D01*
G01X333020Y-245980D02*
Y-214230D01*
X343260Y-240690D01*
X353500Y-214230D01*
Y-245980D01*
G01X370030Y-214230D02*
X379470D01*
G01X374750D02*
Y-245980D01*
G01X370030D02*
X379470D01*
G01X398370Y-214230D02*
Y-245980D01*
X414110D01*
G01X429860Y-214230D02*
Y-245980D01*
X445600D01*
G01X464500Y-214230D02*
X473940D01*
G01X469220D02*
Y-245980D01*
G01X464500D02*
X473940D01*
G01X490470D02*
Y-214230D01*
X500710Y-240690D01*
X510950Y-214230D01*
Y-245980D01*
G01X540070D02*
X524330D01*
Y-214230D01*
X540070D01*
G01X533770Y-229580D02*
X524330D01*
G01X563690Y-214230D02*
Y-245980D01*
G01X554640Y-214230D02*
X572740D01*
G01X603050Y-245980D02*
X587310D01*
Y-214230D01*
X603050D01*
G01X596750Y-229580D02*
X587310D01*
G01X618800Y-245980D02*
Y-214230D01*
X628640D01*
X631790Y-215820D01*
X633760Y-217930D01*
X634540Y-222170D01*
X633760Y-226400D01*
X631390Y-229050D01*
X628640Y-230630D01*
X618800D01*
G01X628640D02*
X634540Y-245980D01*
G01X649890Y-241750D02*
X653040Y-244390D01*
X656590Y-245980D01*
X659730D01*
X662880Y-244390D01*
X665250Y-241750D01*
X666430Y-238040D01*
X665640Y-234340D01*
X663670Y-231160D01*
X660130Y-229050D01*
X655400Y-227990D01*
X652650Y-225870D01*
X651470Y-222170D01*
X652260Y-218460D01*
X654220Y-215820D01*
X656980Y-214230D01*
X659730D01*
X662490Y-215290D01*
X664850Y-217930D01*
G01X-169240Y-180980D02*
Y-149230D01*
X-161370D01*
X-158220Y-150820D01*
X-155860Y-152930D01*
X-153890Y-156110D01*
X-152310Y-159810D01*
X-151920Y-165110D01*
X-152310Y-170400D01*
X-153890Y-174100D01*
X-155860Y-177280D01*
X-158220Y-179390D01*
X-161370Y-180980D01*
X-169240D01*
G01X-136960D02*
Y-149230D01*
X-127120D01*
X-123970Y-150820D01*
X-122000Y-152930D01*
X-121220Y-157170D01*
X-122000Y-161400D01*
X-124370Y-164050D01*
X-127120Y-165630D01*
X-136960D01*
G01X-127120D02*
X-121220Y-180980D01*
G01X-102320Y-149230D02*
X-92880D01*
G01X-97600D02*
Y-180980D01*
G01X-102320D02*
X-92880D01*
G01X-73980Y-149230D02*
Y-180980D01*
X-58240D01*
G01X-42490Y-149230D02*
Y-180980D01*
X-26750D01*
G01X37020Y-151880D02*
X34660Y-150290D01*
X31900Y-149230D01*
X28750D01*
X25210Y-150820D01*
X22460Y-153460D01*
X20490Y-156640D01*
X18910Y-161930D01*
X18520Y-166690D01*
X19310Y-171460D01*
X20490Y-174630D01*
X22850Y-177810D01*
X25600Y-179920D01*
X28360Y-180980D01*
X31120D01*
X33870Y-179920D01*
X36230Y-178330D01*
X38200Y-176220D01*
G01X51580Y-180980D02*
Y-149230D01*
G01X68120D02*
Y-180980D01*
G01Y-165110D02*
X51580D01*
G01X81500Y-180980D02*
X91340Y-149230D01*
X101180Y-180980D01*
G01X97640Y-169870D02*
X85040D01*
G01X114960Y-180980D02*
Y-149230D01*
X124800D01*
X127950Y-150820D01*
X129920Y-152930D01*
X130700Y-157170D01*
X129920Y-161400D01*
X127550Y-164050D01*
X124800Y-165630D01*
X114960D01*
G01X124800D02*
X130700Y-180980D01*
G01X154320Y-149230D02*
Y-180980D01*
G01X145270Y-149230D02*
X163370D01*
G01X185810Y-182040D02*
X185020Y-181510D01*
Y-180450D01*
X185810Y-179920D01*
X186600Y-180450D01*
Y-181510D01*
X185810Y-182040D01*
G01Y-167750D02*
X185020Y-167220D01*
Y-166160D01*
X185810Y-165630D01*
X186600Y-166160D01*
Y-167220D01*
X185810Y-167750D01*
G01X248790Y-149230D02*
Y-180980D01*
G01X239740Y-149230D02*
X257840D01*
G01X280280Y-180980D02*
X277130Y-180450D01*
X274380Y-178330D01*
X272010Y-175160D01*
X270440Y-171460D01*
X269650Y-167220D01*
Y-162990D01*
X270440Y-158750D01*
X272010Y-155050D01*
X274380Y-151880D01*
X277130Y-149760D01*
X280280Y-149230D01*
X283430Y-149760D01*
X286180Y-151880D01*
X288550Y-155050D01*
X290120Y-158750D01*
X290910Y-162990D01*
Y-167220D01*
X290120Y-171460D01*
X288550Y-175160D01*
X286180Y-178330D01*
X283430Y-180450D01*
X280280Y-180980D01*
G01X303900D02*
Y-149230D01*
X313340D01*
X316490Y-150820D01*
X318860Y-154520D01*
X319640Y-158750D01*
X318860Y-162990D01*
X316890Y-166160D01*
X313340Y-167750D01*
X303900D01*
G01X374750Y-149230D02*
Y-180980D01*
G01X369240Y-159810D02*
X380260D01*
G01X406240Y-180980D02*
X403880Y-180450D01*
X401520Y-178330D01*
X399940Y-174630D01*
X399150Y-170400D01*
X399940Y-166160D01*
X401520Y-162460D01*
X403880Y-160340D01*
X406240Y-159810D01*
X408600Y-160340D01*
X410960Y-162460D01*
X412540Y-166160D01*
X412930Y-170400D01*
X412540Y-174630D01*
X410960Y-178330D01*
X408600Y-180450D01*
X406240Y-180980D01*
G01X472370Y-164050D02*
X473940Y-162460D01*
X475120Y-159810D01*
X475910Y-156110D01*
X475120Y-152930D01*
X473550Y-150820D01*
X470790Y-149230D01*
X460170D01*
Y-180980D01*
X473160D01*
X475910Y-178860D01*
X477490Y-175690D01*
X478270Y-171980D01*
X477490Y-168280D01*
X475120Y-165110D01*
X472370Y-164050D01*
X460170D01*
G01X500710Y-180980D02*
X497560Y-180450D01*
X494810Y-178330D01*
X492440Y-175160D01*
X490870Y-171460D01*
X490080Y-167220D01*
Y-162990D01*
X490870Y-158750D01*
X492440Y-155050D01*
X494810Y-151880D01*
X497560Y-149760D01*
X500710Y-149230D01*
X503860Y-149760D01*
X506610Y-151880D01*
X508980Y-155050D01*
X510550Y-158750D01*
X511340Y-162990D01*
Y-167220D01*
X510550Y-171460D01*
X508980Y-175160D01*
X506610Y-178330D01*
X503860Y-180450D01*
X500710Y-180980D01*
G01X532200Y-149230D02*
Y-180980D01*
G01X523150Y-149230D02*
X541250D01*
G01X563690D02*
Y-180980D01*
G01X554640Y-149230D02*
X572740D01*
G01X595180Y-180980D02*
X592030Y-180450D01*
X589280Y-178330D01*
X586910Y-175160D01*
X585340Y-171460D01*
X584550Y-167220D01*
Y-162990D01*
X585340Y-158750D01*
X586910Y-155050D01*
X589280Y-151880D01*
X592030Y-149760D01*
X595180Y-149230D01*
X598330Y-149760D01*
X601080Y-151880D01*
X603450Y-155050D01*
X605020Y-158750D01*
X605810Y-162990D01*
Y-167220D01*
X605020Y-171460D01*
X603450Y-175160D01*
X601080Y-178330D01*
X598330Y-180450D01*
X595180Y-180980D01*
G01X616430D02*
Y-149230D01*
X626670Y-175690D01*
X636910Y-149230D01*
Y-180980D01*
G01X15770Y-557130D02*
X18130Y-560830D01*
X21280Y-562950D01*
X24820Y-563480D01*
X27970Y-562950D01*
X31120Y-560310D01*
X33090Y-557130D01*
X33480Y-553960D01*
X32700Y-550250D01*
X29940Y-547610D01*
X27190Y-546550D01*
X23640D01*
G01X27190D02*
X29550Y-544960D01*
X31520Y-542310D01*
X32300Y-539140D01*
X31520Y-535960D01*
X29550Y-533320D01*
X26000Y-531730D01*
X22460Y-532260D01*
X18920Y-534380D01*
G01X55920Y-564540D02*
X55130Y-564010D01*
Y-562950D01*
X55920Y-562420D01*
X56710Y-562950D01*
Y-564010D01*
X55920Y-564540D01*
G01X87410Y-563480D02*
Y-531730D01*
X82690Y-538080D01*
G01Y-563480D02*
X92130D01*
G01X118110D02*
X118900Y-556600D01*
X120080Y-550780D01*
X121660Y-545490D01*
X123620Y-539670D01*
X126770Y-531730D01*
X111030D01*
G01X141730Y-558720D02*
X144090Y-561360D01*
X146850Y-562950D01*
X150390Y-563480D01*
X153930Y-562420D01*
X156690Y-560310D01*
X158660Y-556600D01*
X159050Y-552370D01*
X158260Y-548130D01*
X156290Y-545490D01*
X153540Y-543370D01*
X150780Y-542840D01*
X148030Y-543370D01*
X144490Y-545490D01*
X145670Y-531730D01*
X156290D01*
G01X55920Y-468230D02*
X52770Y-469290D01*
X50410Y-471930D01*
X48830Y-475110D01*
X47650Y-479340D01*
X47260Y-484110D01*
X47650Y-488870D01*
X48830Y-493100D01*
X50410Y-496280D01*
X52770Y-498920D01*
X55920Y-499980D01*
X59070Y-498920D01*
X61430Y-496280D01*
X63010Y-493100D01*
X64190Y-488870D01*
X64580Y-484110D01*
X64190Y-479340D01*
X63010Y-475110D01*
X61430Y-471930D01*
X59070Y-469290D01*
X55920Y-468230D01*
G01X87410Y-501040D02*
X86620Y-500510D01*
Y-499450D01*
X87410Y-498920D01*
X88200Y-499450D01*
Y-500510D01*
X87410Y-501040D01*
G01X112210Y-496280D02*
X114960Y-498920D01*
X118110Y-499980D01*
X121260Y-498920D01*
X124020Y-495750D01*
X125990Y-490980D01*
X126770Y-486220D01*
Y-480400D01*
X125990Y-475640D01*
X124020Y-471410D01*
X121660Y-469290D01*
X118900Y-468230D01*
X115750Y-469290D01*
X113390Y-471410D01*
X111810Y-474580D01*
X111030Y-478810D01*
X111810Y-482520D01*
X113780Y-486220D01*
X116140Y-488340D01*
X118900Y-488870D01*
X122050Y-487810D01*
X124410Y-485160D01*
X126770Y-480400D01*
G01X24430Y-404730D02*
X21280Y-405790D01*
X18920Y-408430D01*
X17340Y-411610D01*
X16160Y-415840D01*
X15770Y-420610D01*
X16160Y-425370D01*
X17340Y-429600D01*
X18920Y-432780D01*
X21280Y-435420D01*
X24430Y-436480D01*
X27580Y-435420D01*
X29940Y-432780D01*
X31520Y-429600D01*
X32700Y-425370D01*
X33090Y-420610D01*
X32700Y-415840D01*
X31520Y-411610D01*
X29940Y-408430D01*
X27580Y-405790D01*
X24430Y-404730D01*
G01X55920Y-437540D02*
X55130Y-437010D01*
Y-435950D01*
X55920Y-435420D01*
X56710Y-435950D01*
Y-437010D01*
X55920Y-437540D01*
G01X80720Y-432780D02*
X83470Y-435420D01*
X86620Y-436480D01*
X89770Y-435420D01*
X92530Y-432250D01*
X94500Y-427480D01*
X95280Y-422720D01*
Y-416900D01*
X94500Y-412140D01*
X92530Y-407910D01*
X90170Y-405790D01*
X87410Y-404730D01*
X84260Y-405790D01*
X81900Y-407910D01*
X80320Y-411080D01*
X79540Y-415310D01*
X80320Y-419020D01*
X82290Y-422720D01*
X84650Y-424840D01*
X87410Y-425370D01*
X90560Y-424310D01*
X92920Y-421660D01*
X95280Y-416900D01*
G01X118900Y-436480D02*
Y-404730D01*
X114180Y-411080D01*
G01Y-436480D02*
X123620D01*
G01X155110D02*
Y-404730D01*
X140550Y-427480D01*
X160230D01*
G01X31900Y-305250D02*
X35050Y-307890D01*
X38600Y-309480D01*
X41740D01*
X44890Y-307890D01*
X47260Y-305250D01*
X48440Y-301540D01*
X47650Y-297840D01*
X45680Y-294660D01*
X42140Y-292550D01*
X37410Y-291490D01*
X34660Y-289370D01*
X33480Y-285670D01*
X34270Y-281960D01*
X36230Y-279320D01*
X38990Y-277730D01*
X41740D01*
X44500Y-278790D01*
X46860Y-281430D01*
G01X66940Y-277730D02*
X76380D01*
G01X71660D02*
Y-309480D01*
G01X66940D02*
X76380D01*
G01X95670Y-277730D02*
X110630D01*
X95670Y-309480D01*
X110630D01*
G01X142510D02*
X126770D01*
Y-277730D01*
X142510D01*
G01X136210Y-293080D02*
X126770D01*
G01X40170Y-341230D02*
X37020Y-342290D01*
X34660Y-344930D01*
X33080Y-348110D01*
X31900Y-352340D01*
X31510Y-357110D01*
X31900Y-361870D01*
X33080Y-366100D01*
X34660Y-369280D01*
X37020Y-371920D01*
X40170Y-372980D01*
X43320Y-371920D01*
X45680Y-369280D01*
X47260Y-366100D01*
X48440Y-361870D01*
X48830Y-357110D01*
X48440Y-352340D01*
X47260Y-348110D01*
X45680Y-344930D01*
X43320Y-342290D01*
X40170Y-341230D01*
G01X71660Y-374040D02*
X70870Y-373510D01*
Y-372450D01*
X71660Y-371920D01*
X72450Y-372450D01*
Y-373510D01*
X71660Y-374040D01*
G01X94490Y-366630D02*
X96850Y-370330D01*
X100000Y-372450D01*
X103540Y-372980D01*
X106690Y-372450D01*
X109840Y-369810D01*
X111810Y-366630D01*
X112200Y-363460D01*
X111420Y-359750D01*
X108660Y-357110D01*
X105910Y-356050D01*
X102360D01*
G01X105910D02*
X108270Y-354460D01*
X110240Y-351810D01*
X111020Y-348640D01*
X110240Y-345460D01*
X108270Y-342820D01*
X104720Y-341230D01*
X101180Y-341760D01*
X97640Y-343880D01*
G01X125980Y-366630D02*
X128340Y-370330D01*
X131490Y-372450D01*
X135030Y-372980D01*
X138180Y-372450D01*
X141330Y-369810D01*
X143300Y-366630D01*
X143690Y-363460D01*
X142910Y-359750D01*
X140150Y-357110D01*
X137400Y-356050D01*
X133850D01*
G01X137400D02*
X139760Y-354460D01*
X141730Y-351810D01*
X142510Y-348640D01*
X141730Y-345460D01*
X139760Y-342820D01*
X136210Y-341230D01*
X132670Y-341760D01*
X129130Y-343880D01*
G01X338140Y-563480D02*
Y-531730D01*
X356240Y-563480D01*
Y-531730D01*
G01X378680Y-563480D02*
X375530Y-562950D01*
X372780Y-560830D01*
X370410Y-557660D01*
X368840Y-553960D01*
X368050Y-549720D01*
Y-545490D01*
X368840Y-541250D01*
X370410Y-537550D01*
X372780Y-534380D01*
X375530Y-532260D01*
X378680Y-531730D01*
X381830Y-532260D01*
X384580Y-534380D01*
X386950Y-537550D01*
X388520Y-541250D01*
X389310Y-545490D01*
Y-549720D01*
X388520Y-553960D01*
X386950Y-557660D01*
X384580Y-560830D01*
X381830Y-562950D01*
X378680Y-563480D01*
G01X401120D02*
Y-531730D01*
X419220Y-563480D01*
Y-531730D01*
G01X436540Y-552900D02*
X446780D01*
G01X465280Y-563480D02*
Y-531730D01*
X474720D01*
X477870Y-533320D01*
X480240Y-537020D01*
X481020Y-541250D01*
X480240Y-545490D01*
X478270Y-548660D01*
X474720Y-550250D01*
X465280D01*
G01X496770Y-531730D02*
Y-563480D01*
X512510D01*
G01X526290D02*
X536130Y-531730D01*
X545970Y-563480D01*
G01X542430Y-552370D02*
X529830D01*
G01X567620Y-531730D02*
Y-563480D01*
G01X558570Y-531730D02*
X576670D01*
G01X606980Y-563480D02*
X591240D01*
Y-531730D01*
X606980D01*
G01X600680Y-547080D02*
X591240D01*
G01X621940Y-563480D02*
Y-531730D01*
X629810D01*
X632960Y-533320D01*
X635320Y-535430D01*
X637290Y-538610D01*
X638870Y-542310D01*
X639260Y-547610D01*
X638870Y-552900D01*
X637290Y-556600D01*
X635320Y-559780D01*
X632960Y-561890D01*
X629810Y-563480D01*
X621940D01*
G01X338140Y-499980D02*
Y-468230D01*
X356240Y-499980D01*
Y-468230D01*
G01X378680Y-499980D02*
X375530Y-499450D01*
X372780Y-497330D01*
X370410Y-494160D01*
X368840Y-490460D01*
X368050Y-486220D01*
Y-481990D01*
X368840Y-477750D01*
X370410Y-474050D01*
X372780Y-470880D01*
X375530Y-468760D01*
X378680Y-468230D01*
X381830Y-468760D01*
X384580Y-470880D01*
X386950Y-474050D01*
X388520Y-477750D01*
X389310Y-481990D01*
Y-486220D01*
X388520Y-490460D01*
X386950Y-494160D01*
X384580Y-497330D01*
X381830Y-499450D01*
X378680Y-499980D01*
G01X401120D02*
Y-468230D01*
X419220Y-499980D01*
Y-468230D01*
G01X436540Y-489400D02*
X446780D01*
G01X465280Y-499980D02*
Y-468230D01*
X474720D01*
X477870Y-469820D01*
X480240Y-473520D01*
X481020Y-477750D01*
X480240Y-481990D01*
X478270Y-485160D01*
X474720Y-486750D01*
X465280D01*
G01X496770Y-468230D02*
Y-499980D01*
X512510D01*
G01X526290D02*
X536130Y-468230D01*
X545970Y-499980D01*
G01X542430Y-488870D02*
X529830D01*
G01X567620Y-468230D02*
Y-499980D01*
G01X558570Y-468230D02*
X576670D01*
G01X606980Y-499980D02*
X591240D01*
Y-468230D01*
X606980D01*
G01X600680Y-483580D02*
X591240D01*
G01X621940Y-499980D02*
Y-468230D01*
X629810D01*
X632960Y-469820D01*
X635320Y-471930D01*
X637290Y-475110D01*
X638870Y-478810D01*
X639260Y-484110D01*
X638870Y-489400D01*
X637290Y-493100D01*
X635320Y-496280D01*
X632960Y-498390D01*
X629810Y-499980D01*
X621940D01*
G01X402300Y-436480D02*
Y-404730D01*
X411740D01*
X414890Y-406320D01*
X417260Y-410020D01*
X418040Y-414250D01*
X417260Y-418490D01*
X415290Y-421660D01*
X411740Y-423250D01*
X402300D01*
G01X433790Y-404730D02*
Y-436480D01*
X449530D01*
G01X463310D02*
X473150Y-404730D01*
X482990Y-436480D01*
G01X479450Y-425370D02*
X466850D01*
G01X504640Y-404730D02*
Y-436480D01*
G01X495590Y-404730D02*
X513690D01*
G01X544000Y-436480D02*
X528260D01*
Y-404730D01*
X544000D01*
G01X537700Y-420080D02*
X528260D01*
G01X558960Y-436480D02*
Y-404730D01*
X566830D01*
X569980Y-406320D01*
X572340Y-408430D01*
X574310Y-411610D01*
X575890Y-415310D01*
X576280Y-420610D01*
X575890Y-425900D01*
X574310Y-429600D01*
X572340Y-432780D01*
X569980Y-434890D01*
X566830Y-436480D01*
X558960D01*
G01X402300Y-309480D02*
Y-277730D01*
X411740D01*
X414890Y-279320D01*
X417260Y-283020D01*
X418040Y-287250D01*
X417260Y-291490D01*
X415290Y-294660D01*
X411740Y-296250D01*
X402300D01*
G01X433790Y-277730D02*
Y-309480D01*
X449530D01*
G01X463310D02*
X473150Y-277730D01*
X482990Y-309480D01*
G01X479450Y-298370D02*
X466850D01*
G01X504640Y-277730D02*
Y-309480D01*
G01X495590Y-277730D02*
X513690D01*
G01X544000Y-309480D02*
X528260D01*
Y-277730D01*
X544000D01*
G01X537700Y-293080D02*
X528260D01*
G01X558960Y-309480D02*
Y-277730D01*
X566830D01*
X569980Y-279320D01*
X572340Y-281430D01*
X574310Y-284610D01*
X575890Y-288310D01*
X576280Y-293610D01*
X575890Y-298900D01*
X574310Y-302600D01*
X572340Y-305780D01*
X569980Y-307890D01*
X566830Y-309480D01*
X558960D01*
G01X402300Y-372980D02*
Y-341230D01*
X411740D01*
X414890Y-342820D01*
X417260Y-346520D01*
X418040Y-350750D01*
X417260Y-354990D01*
X415290Y-358160D01*
X411740Y-359750D01*
X402300D01*
G01X433790Y-341230D02*
Y-372980D01*
X449530D01*
G01X463310D02*
X473150Y-341230D01*
X482990Y-372980D01*
G01X479450Y-361870D02*
X466850D01*
G01X504640Y-341230D02*
Y-372980D01*
G01X495590Y-341230D02*
X513690D01*
G01X544000Y-372980D02*
X528260D01*
Y-341230D01*
X544000D01*
G01X537700Y-356580D02*
X528260D01*
G01X558960Y-372980D02*
Y-341230D01*
X566830D01*
X569980Y-342820D01*
X572340Y-344930D01*
X574310Y-348110D01*
X575890Y-351810D01*
X576280Y-357110D01*
X575890Y-362400D01*
X574310Y-366100D01*
X572340Y-369280D01*
X569980Y-371390D01*
X566830Y-372980D01*
X558960D01*
G01X753410Y-563480D02*
Y-531730D01*
X738850Y-554480D01*
X758530D01*
G01X741210Y-473520D02*
X743570Y-470350D01*
X746330Y-468760D01*
X749480Y-468230D01*
X753410Y-469290D01*
X756170Y-471930D01*
X756960Y-475110D01*
X756560Y-478280D01*
X754990Y-480930D01*
X747120Y-486220D01*
X743570Y-489930D01*
X741210Y-495220D01*
X740420Y-499980D01*
X756960D01*
G01X724280Y-430130D02*
X726640Y-433830D01*
X729790Y-435950D01*
X733330Y-436480D01*
X736480Y-435950D01*
X739630Y-433310D01*
X741600Y-430130D01*
X741990Y-426960D01*
X741210Y-423250D01*
X738450Y-420610D01*
X735700Y-419550D01*
X732150D01*
G01X735700D02*
X738060Y-417960D01*
X740030Y-415310D01*
X740810Y-412140D01*
X740030Y-408960D01*
X738060Y-406320D01*
X734510Y-404730D01*
X730970Y-405260D01*
X727430Y-407380D01*
G01X756950Y-410020D02*
X759310Y-406850D01*
X762070Y-405260D01*
X765220Y-404730D01*
X769150Y-405790D01*
X771910Y-408430D01*
X772700Y-411610D01*
X772300Y-414780D01*
X770730Y-417430D01*
X762860Y-422720D01*
X759310Y-426430D01*
X756950Y-431720D01*
X756160Y-436480D01*
X772700D01*
G01X717200Y-309480D02*
X714050Y-308950D01*
X711300Y-306830D01*
X708930Y-303660D01*
X707360Y-299960D01*
X706570Y-295720D01*
Y-291490D01*
X707360Y-287250D01*
X708930Y-283550D01*
X711300Y-280380D01*
X714050Y-278260D01*
X717200Y-277730D01*
X720350Y-278260D01*
X723100Y-280380D01*
X725470Y-283550D01*
X727040Y-287250D01*
X727830Y-291490D01*
Y-295720D01*
X727040Y-299960D01*
X725470Y-303660D01*
X723100Y-306830D01*
X720350Y-308950D01*
X717200Y-309480D01*
G01X720350Y-301010D02*
X725070Y-309480D01*
G01X748690Y-277730D02*
Y-309480D01*
G01X739640Y-277730D02*
X757740D01*
G01X780180Y-309480D02*
Y-295190D01*
X772310Y-277730D01*
G01X788050D02*
X780180Y-295190D01*
G01X725460Y-346520D02*
X727820Y-343350D01*
X730580Y-341760D01*
X733730Y-341230D01*
X737660Y-342290D01*
X740420Y-344930D01*
X741210Y-348110D01*
X740810Y-351280D01*
X739240Y-353930D01*
X731370Y-359220D01*
X727820Y-362930D01*
X725460Y-368220D01*
X724670Y-372980D01*
X741210D01*
G01X756950Y-346520D02*
X759310Y-343350D01*
X762070Y-341760D01*
X765220Y-341230D01*
X769150Y-342290D01*
X771910Y-344930D01*
X772700Y-348110D01*
X772300Y-351280D01*
X770730Y-353930D01*
X762860Y-359220D01*
X759310Y-362930D01*
X756950Y-368220D01*
X756160Y-372980D01*
X772700D01*
M02*
