G04 ================== begin FILE IDENTIFICATION RECORD ==================*
G04 Layout Name:  E:/source/repos/PCB/allegro/PROTOGEN.brd*
G04 Film Name:    Paste_TOP*
G04 File Format:  Gerber RS274X*
G04 File Origin:  Cadence Allegro 16.6-2015-S108*
G04 Origin Date:  Thu Aug 05 20:57:01 2021*
G04 *
G04 Layer:  PIN/PASTEMASK_TOP*
G04 *
G04 Offset:    (0.000 0.000)*
G04 Mirror:    No*
G04 Mode:      Positive*
G04 Rotation:  0*
G04 FullContactRelief:  No*
G04 UndefLineWidth:     0.010*
G04 ================== end FILE IDENTIFICATION RECORD ====================*
%FSLAX34Y34*MOMM*%
%IR0*IPPOS*OFA0.00000B0.00000*MIA0B0*SFA1.00000B1.00000*%
%ADD13R,2.3X.5*%
%AMMACRO15*
4,1,40,-.655,-.367,
-.655,.367,
-.653449,.38407,
-.648957,.400611,
-.641662,.416121,
-.631784,.430128,
-.619623,.442207,
-.60555,.451991,
-.589992,.459183,
-.573421,.463563,
-.557,.465,
.557,.465,
.57407,.463449,
.590611,.458957,
.606121,.451662,
.620128,.441784,
.632207,.429623,
.641991,.41555,
.649183,.399992,
.653563,.383421,
.655,.367,
.655,-.367,
.653449,-.38407,
.648957,-.400611,
.641662,-.416121,
.631784,-.430128,
.619623,-.442207,
.60555,-.451991,
.589992,-.459183,
.573421,-.463563,
.557,-.465,
-.557,-.465,
-.57407,-.463449,
-.590611,-.458957,
-.606121,-.451662,
-.620128,-.441784,
-.632207,-.429623,
-.641991,-.41555,
-.649183,-.399992,
-.653563,-.383421,
-.655,-.367,
0.0*
%
%ADD15MACRO15*%
%ADD11R,1.X1.3*%
%ADD17R,1.3X1.*%
%ADD14R,1.42X1.*%
%ADD12R,1.X1.42*%
%ADD10R,2.5X2.*%
%ADD18R,2.X5.5*%
%AMMACRO16*
4,1,40,-.655,-1.522,
-.655,1.522,
-.653384,1.539124,
-.648819,1.555708,
-.641443,1.571247,
-.631481,1.585269,
-.619236,1.597348,
-.605079,1.607117,
-.58944,1.61428,
-.572796,1.618618,
-.557,1.62,
.557,1.62,
.574124,1.618384,
.590708,1.613819,
.606247,1.606443,
.620269,1.596481,
.632348,1.584236,
.642117,1.570079,
.64928,1.55444,
.653618,1.537796,
.655,1.522,
.655,-1.522,
.653384,-1.539124,
.648819,-1.555708,
.641443,-1.571247,
.631481,-1.585269,
.619236,-1.597348,
.605079,-1.607117,
.58944,-1.61428,
.572796,-1.618618,
.557,-1.62,
-.557,-1.62,
-.574124,-1.618384,
-.590708,-1.613819,
-.606247,-1.606443,
-.620269,-1.596481,
-.632348,-1.584236,
-.642117,-1.570079,
-.64928,-1.55444,
-.653618,-1.537796,
-.655,-1.522,
0.0*
%
%ADD16MACRO16*%
%LPD*%
G75*
G54D10*
X22500Y63400D03*
Y152400D03*
X77500Y63400D03*
Y152400D03*
G54D11*
X53350Y203200D03*
X38350D03*
Y330200D03*
X53350D03*
X128350Y203200D03*
X113350D03*
X98350D03*
X83350D03*
X68350D03*
Y330200D03*
X83350D03*
X98350D03*
X113350D03*
X128350D03*
X158350Y203200D03*
X143350D03*
X218350D03*
X203350D03*
X188350D03*
X173350D03*
X143350Y330200D03*
X158350D03*
X173350D03*
X188350D03*
X203350D03*
X218350D03*
G54D12*
X66850Y368300D03*
X85550D03*
X308150D03*
X326850D03*
G54D13*
X77500Y91900D03*
Y99900D03*
Y107900D03*
Y115900D03*
Y123900D03*
G54D14*
X184150Y66850D03*
Y85550D03*
Y130350D03*
Y149050D03*
X374650Y91900D03*
Y73200D03*
Y149400D03*
Y168100D03*
X412750Y289100D03*
Y307800D03*
G54D15*
X220550Y91400D03*
Y114300D03*
Y137200D03*
G54D16*
X287450Y114300D03*
G54D17*
X233350Y214200D03*
Y289200D03*
Y274200D03*
Y259200D03*
Y244200D03*
Y229200D03*
Y319200D03*
Y304200D03*
G54D18*
X330200Y73150D03*
Y168150D03*
M02*
