M48
METRIC,LZ
T01C.33
T02C.914
T03C.9
T04C3.175
;LEADER: 12 
;HEADER: 
;CODE  : ASCII 
;FILE  : PROTOGEN-1-2.drl for  ... layers TOP and BOTTOM
;DESIGN: PROTOGEN.brd
;T01 Holesize 1. = 0.330000 Tolerance = +0.000000/-0.000000 PLATED MM Quantity = 22
;T02 Holesize 2. = 0.914000 Tolerance = +0.000000/-0.000000 PLATED MM Quantity = 32
;T03 Holesize 3. = 0.900000 Tolerance = +0.000000/-0.000000 NON_PLATED MM Quantity = 2
;T04 Holesize 4. = 3.175000 Tolerance = +0.000000/-0.000000 NON_PLATED MM Quantity = 4
%
G90
T01
X031115Y029845
X020371Y029794
X02032Y028575
X032385Y02921
X040132Y00889
X02921Y018415
X03937Y01143
X041275Y00635
X020335Y022845
X03048Y019685
X02667Y03048
X037465Y012065
X02057Y01372
X018415Y00508
X018415Y01651
X008555Y034925
X01016Y00919
X021835Y018415
X02667Y026905
X03556Y027705
X0217Y03164
X040005Y03205
T02
X01143Y03683
X01397Y03683
X02794Y03683
X0254Y03683
X045085Y01397
X045085Y01143
X045085Y00889
X045085Y00635
X047625Y01397
X047625Y01143
X047625Y00889
X047625Y00635
X050165Y01397
X050165Y01143
X050165Y00889
X050165Y00635
X022225Y03683
X019685Y03683
X017145Y03683
X045085Y02921
X045085Y02667
X045085Y02413
X045085Y02159
X050165Y02921
X050165Y02667
X050165Y02413
X050165Y02159
X050165Y01905
X01397Y0127
X01397Y01524
X01397Y00635
X01397Y00889
T03
X0052Y01299
X0052Y00859
T04
X0025Y0025
X0025Y0395
X0525Y0395
X0525Y0025
M30
