G04 ================== begin FILE IDENTIFICATION RECORD ==================*
G04 Layout Name:  E:/source/repos/PCB/allegro/PROTOGEN.brd*
G04 Film Name:    Silk_TOP*
G04 File Format:  Gerber RS274X*
G04 File Origin:  Cadence Allegro 16.6-2015-S108*
G04 Origin Date:  Tue Aug 03 00:48:23 2021*
G04 *
G04 Layer:  REF DES/SILKSCREEN_TOP*
G04 Layer:  PACKAGE GEOMETRY/SILKSCREEN_TOP*
G04 Layer:  BOARD GEOMETRY/OUTLINE*
G04 Layer:  BOARD GEOMETRY/SILKSCREEN_TOP*
G04 *
G04 Offset:    (0.000 0.000)*
G04 Mirror:    No*
G04 Mode:      Positive*
G04 Rotation:  0*
G04 FullContactRelief:  No*
G04 UndefLineWidth:     0.010*
G04 ================== end FILE IDENTIFICATION RECORD ====================*
%FSLAX34Y34*MOMM*%
%IR0*IPPOS*OFA0.00000B0.00000*MIA0B0*SFA1.00000B1.00000*%
%ADD10C,.01*%
%ADD11C,.05*%
%ADD12C,.1*%
%ADD13C,.3*%
%ADD14C,.127*%
G75*
%LPD*%
G75*
G36*
G01X40640Y215900D02*
G03I-2540J0D01*
G37*
G54D10*
G01X8500Y69900D02*
Y146900D01*
G01X10000Y69900D02*
X8500D01*
G01X65000D02*
X35000D01*
G01Y146900D02*
X65000D01*
G01X8500D02*
X10000D01*
G01X165100Y76200D02*
G03I-25400J0D01*
G01Y139700D02*
G03I-25400J0D01*
G01X90000Y142400D02*
Y73400D01*
G01X0Y0D02*
Y420000D01*
X550000D01*
Y0D01*
X0D01*
G01X101600Y355600D02*
Y381000D01*
X152400D01*
Y355600D01*
X101600D01*
G01X234950Y381000D02*
Y355600D01*
X158750D01*
Y381000D01*
X234950D01*
G01X292100D02*
Y355600D01*
X241300D01*
Y381000D01*
X292100D01*
G01X303550Y306050D02*
Y240050D01*
X369550D01*
Y306050D01*
X303550D01*
G01X438150Y304800D02*
X463550D01*
Y203200D01*
X438150D01*
Y304800D01*
G01X488950D02*
X514350D01*
Y177800D01*
X488950D01*
Y304800D01*
G54D11*
G01X45420Y153970D02*
X45910Y153190D01*
X46490Y152660D01*
X47180Y152400D01*
X47950Y152660D01*
X48540Y153190D01*
X49120Y153970D01*
X49320Y155020D01*
Y160270D01*
G01X55240Y152400D02*
Y160270D01*
X54070Y158700D01*
G01Y152400D02*
X56410D01*
G01X44720Y350770D02*
Y345130D01*
X45110Y343950D01*
X45890Y343160D01*
X46860Y342900D01*
X47830Y343160D01*
X48610Y343950D01*
X49000Y345130D01*
Y350770D01*
G01X52880Y349460D02*
X53460Y350250D01*
X54150Y350640D01*
X54920Y350770D01*
X55900Y350510D01*
X56580Y349850D01*
X56770Y349060D01*
X56680Y348280D01*
X56290Y347620D01*
X54340Y346310D01*
X53460Y345390D01*
X52880Y344080D01*
X52690Y342900D01*
X56770D01*
G01X112500Y102460D02*
X111920Y102860D01*
X111240Y103120D01*
X110460D01*
X109580Y102730D01*
X108900Y102070D01*
X108410Y101280D01*
X108020Y99970D01*
X107930Y98790D01*
X108120Y97610D01*
X108410Y96820D01*
X109000Y96040D01*
X109680Y95510D01*
X110360Y95250D01*
X111040D01*
X111720Y95510D01*
X112310Y95910D01*
X112790Y96430D01*
G01X118230Y95250D02*
Y103120D01*
X117060Y101550D01*
G01Y95250D02*
X119400D01*
G01X112500Y165960D02*
X111920Y166360D01*
X111240Y166620D01*
X110460D01*
X109580Y166230D01*
X108900Y165570D01*
X108410Y164780D01*
X108020Y163470D01*
X107930Y162290D01*
X108120Y161110D01*
X108410Y160320D01*
X109000Y159540D01*
X109680Y159010D01*
X110360Y158750D01*
X111040D01*
X111720Y159010D01*
X112310Y159410D01*
X112790Y159930D01*
G01X119400Y158750D02*
Y166620D01*
X115800Y160980D01*
X120660D01*
G01X70310Y381000D02*
Y388870D01*
X72750D01*
X73530Y388480D01*
X74010Y387950D01*
X74210Y386900D01*
X74010Y385850D01*
X73430Y385200D01*
X72750Y384800D01*
X70310D01*
G01X72750D02*
X74210Y381000D01*
G01X78280Y387560D02*
X78860Y388350D01*
X79550Y388740D01*
X80320Y388870D01*
X81300Y388610D01*
X81980Y387950D01*
X82170Y387160D01*
X82080Y386380D01*
X81690Y385720D01*
X79740Y384410D01*
X78860Y383490D01*
X78280Y382180D01*
X78090Y381000D01*
X82170D01*
G01X104390Y388400D02*
X105160Y387740D01*
X106040Y387350D01*
X106820D01*
X107600Y387740D01*
X108180Y388400D01*
X108470Y389320D01*
X108280Y390240D01*
X107790Y391020D01*
X106920Y391550D01*
X105750Y391810D01*
X105070Y392330D01*
X104780Y393250D01*
X104970Y394170D01*
X105460Y394830D01*
X106140Y395220D01*
X106820D01*
X107500Y394960D01*
X108080Y394300D01*
G01X111380Y395220D02*
X112740Y387350D01*
X114300Y395220D01*
X115860Y387350D01*
X117220Y395220D01*
G01X120320Y393910D02*
X120900Y394700D01*
X121590Y395090D01*
X122360Y395220D01*
X123340Y394960D01*
X124020Y394300D01*
X124210Y393510D01*
X124120Y392730D01*
X123730Y392070D01*
X121780Y390760D01*
X120900Y389840D01*
X120320Y388530D01*
X120130Y387350D01*
X124210D01*
G01X169650Y96110D02*
X169070Y96510D01*
X168390Y96770D01*
X167610D01*
X166730Y96380D01*
X166050Y95720D01*
X165560Y94930D01*
X165170Y93620D01*
X165080Y92440D01*
X165270Y91260D01*
X165560Y90470D01*
X166150Y89690D01*
X166830Y89160D01*
X167510Y88900D01*
X168190D01*
X168870Y89160D01*
X169460Y89560D01*
X169940Y90080D01*
G01X173530Y95460D02*
X174110Y96250D01*
X174800Y96640D01*
X175570Y96770D01*
X176550Y96510D01*
X177230Y95850D01*
X177420Y95060D01*
X177330Y94280D01*
X176940Y93620D01*
X174990Y92310D01*
X174110Y91390D01*
X173530Y90080D01*
X173340Y88900D01*
X177420D01*
G01X169650Y159610D02*
X169070Y160010D01*
X168390Y160270D01*
X167610D01*
X166730Y159880D01*
X166050Y159220D01*
X165560Y158430D01*
X165170Y157120D01*
X165080Y155940D01*
X165270Y154760D01*
X165560Y153970D01*
X166150Y153190D01*
X166830Y152660D01*
X167510Y152400D01*
X168190D01*
X168870Y152660D01*
X169460Y153060D01*
X169940Y153580D01*
G01X173240Y153970D02*
X173820Y153060D01*
X174600Y152530D01*
X175480Y152400D01*
X176260Y152530D01*
X177030Y153190D01*
X177520Y153970D01*
X177620Y154760D01*
X177420Y155680D01*
X176740Y156330D01*
X176060Y156600D01*
X175190D01*
G01X176060D02*
X176650Y156990D01*
X177130Y157650D01*
X177330Y158430D01*
X177130Y159220D01*
X176650Y159880D01*
X175770Y160270D01*
X174890Y160140D01*
X174020Y159610D01*
G01X159210Y388920D02*
X159700Y388140D01*
X160280Y387610D01*
X160970Y387350D01*
X161740Y387610D01*
X162330Y388140D01*
X162910Y388920D01*
X163110Y389970D01*
Y395220D01*
G01X170200Y387350D02*
Y395220D01*
X166600Y389580D01*
X171460D01*
G01X222520Y153920D02*
Y148280D01*
X222910Y147100D01*
X223690Y146310D01*
X224660Y146050D01*
X225630Y146310D01*
X226410Y147100D01*
X226800Y148280D01*
Y153920D01*
G01X232530Y146050D02*
Y153920D01*
X231360Y152350D01*
G01Y146050D02*
X233700D01*
G01X286020Y319020D02*
Y313380D01*
X286410Y312200D01*
X287190Y311410D01*
X288160Y311150D01*
X289130Y311410D01*
X289910Y312200D01*
X290300Y313380D01*
Y319020D01*
G01X293890Y312720D02*
X294470Y311810D01*
X295250Y311280D01*
X296130Y311150D01*
X296910Y311280D01*
X297680Y311940D01*
X298170Y312720D01*
X298270Y313510D01*
X298070Y314430D01*
X297390Y315080D01*
X296710Y315350D01*
X295840D01*
G01X296710D02*
X297300Y315740D01*
X297780Y316400D01*
X297980Y317180D01*
X297780Y317970D01*
X297300Y318630D01*
X296420Y319020D01*
X295540Y318890D01*
X294670Y318360D01*
G01X244090Y388400D02*
X244860Y387740D01*
X245740Y387350D01*
X246520D01*
X247300Y387740D01*
X247880Y388400D01*
X248170Y389320D01*
X247980Y390240D01*
X247490Y391020D01*
X246620Y391550D01*
X245450Y391810D01*
X244770Y392330D01*
X244480Y393250D01*
X244670Y394170D01*
X245160Y394830D01*
X245840Y395220D01*
X246520D01*
X247200Y394960D01*
X247780Y394300D01*
G01X251080Y395220D02*
X252440Y387350D01*
X254000Y395220D01*
X255560Y387350D01*
X256920Y395220D01*
G01X261870Y387350D02*
Y395220D01*
X260700Y393650D01*
G01Y387350D02*
X263040D01*
G01X360150Y102460D02*
X359570Y102860D01*
X358890Y103120D01*
X358110D01*
X357230Y102730D01*
X356550Y102070D01*
X356060Y101280D01*
X355670Y99970D01*
X355580Y98790D01*
X355770Y97610D01*
X356060Y96820D01*
X356650Y96040D01*
X357330Y95510D01*
X358010Y95250D01*
X358690D01*
X359370Y95510D01*
X359960Y95910D01*
X360440Y96430D01*
G01X364030Y98530D02*
X364710Y99450D01*
X365300Y99970D01*
X366070Y100230D01*
X366760Y99970D01*
X367240Y99450D01*
X367630Y98660D01*
X367730Y97740D01*
X367630Y96960D01*
X367240Y96170D01*
X366660Y95510D01*
X365980Y95250D01*
X365200Y95510D01*
X364520Y96300D01*
X364130Y97480D01*
X364030Y98790D01*
X364230Y100500D01*
X364520Y101410D01*
X365000Y102330D01*
X365690Y102990D01*
X366370Y103120D01*
X367050Y102860D01*
X367530Y102200D01*
G01X360150Y178660D02*
X359570Y179060D01*
X358890Y179320D01*
X358110D01*
X357230Y178930D01*
X356550Y178270D01*
X356060Y177480D01*
X355670Y176170D01*
X355580Y174990D01*
X355770Y173810D01*
X356060Y173020D01*
X356650Y172240D01*
X357330Y171710D01*
X358010Y171450D01*
X358690D01*
X359370Y171710D01*
X359960Y172110D01*
X360440Y172630D01*
G01X365690Y171450D02*
X365880Y173160D01*
X366170Y174600D01*
X366560Y175910D01*
X367050Y177350D01*
X367830Y179320D01*
X363930D01*
G01X300860Y184150D02*
Y187690D01*
X298910Y192020D01*
G01X302810D02*
X300860Y187690D01*
G01X308730Y184150D02*
Y192020D01*
X307560Y190450D01*
G01Y184150D02*
X309900D01*
G01X311610Y381000D02*
Y388870D01*
X314050D01*
X314830Y388480D01*
X315310Y387950D01*
X315510Y386900D01*
X315310Y385850D01*
X314730Y385200D01*
X314050Y384800D01*
X311610D01*
G01X314050D02*
X315510Y381000D01*
G01X321430D02*
Y388870D01*
X320260Y387300D01*
G01Y381000D02*
X322600D01*
G01X425910Y153970D02*
X426400Y153190D01*
X426980Y152660D01*
X427670Y152400D01*
X428440Y152660D01*
X429030Y153190D01*
X429610Y153970D01*
X429810Y155020D01*
Y160270D01*
G01X435540Y152400D02*
X435730Y154110D01*
X436020Y155550D01*
X436410Y156860D01*
X436900Y158300D01*
X437680Y160270D01*
X433780D01*
G01X391900Y318360D02*
X391320Y318760D01*
X390640Y319020D01*
X389860D01*
X388980Y318630D01*
X388300Y317970D01*
X387810Y317180D01*
X387420Y315870D01*
X387330Y314690D01*
X387520Y313510D01*
X387810Y312720D01*
X388400Y311940D01*
X389080Y311410D01*
X389760Y311150D01*
X390440D01*
X391120Y311410D01*
X391710Y311810D01*
X392190Y312330D01*
G01X395490D02*
X396070Y311670D01*
X396750Y311280D01*
X397630Y311150D01*
X398510Y311410D01*
X399190Y311940D01*
X399670Y312860D01*
X399770Y313900D01*
X399580Y314950D01*
X399090Y315610D01*
X398410Y316130D01*
X397730Y316270D01*
X397050Y316130D01*
X396170Y315610D01*
X396460Y319020D01*
X399090D01*
G01X425910Y306370D02*
X426400Y305590D01*
X426980Y305060D01*
X427670Y304800D01*
X428440Y305060D01*
X429030Y305590D01*
X429610Y306370D01*
X429810Y307420D01*
Y312670D01*
G01X433590Y306370D02*
X434170Y305460D01*
X434950Y304930D01*
X435830Y304800D01*
X436610Y304930D01*
X437380Y305590D01*
X437870Y306370D01*
X437970Y307160D01*
X437770Y308080D01*
X437090Y308730D01*
X436410Y309000D01*
X435540D01*
G01X436410D02*
X437000Y309390D01*
X437480Y310050D01*
X437680Y310830D01*
X437480Y311620D01*
X437000Y312280D01*
X436120Y312670D01*
X435240Y312540D01*
X434370Y312010D01*
G01X476710Y306370D02*
X477200Y305590D01*
X477780Y305060D01*
X478470Y304800D01*
X479240Y305060D01*
X479830Y305590D01*
X480410Y306370D01*
X480610Y307420D01*
Y312670D01*
G01X484680Y311360D02*
X485260Y312150D01*
X485950Y312540D01*
X486720Y312670D01*
X487700Y312410D01*
X488380Y311750D01*
X488570Y310960D01*
X488480Y310180D01*
X488090Y309520D01*
X486140Y308210D01*
X485260Y307290D01*
X484680Y305980D01*
X484490Y304800D01*
X488570D01*
G54D12*
G01X438150Y152400D02*
Y50800D01*
X514350D01*
Y152400D01*
X438150D01*
G01X381990Y365250D02*
X386970Y349250D01*
X391950Y365250D01*
G01X399990Y356450D02*
X406350D01*
X405760Y358320D01*
X404760Y359380D01*
X403370Y359920D01*
X401980Y359650D01*
X400780Y358850D01*
X399990Y356980D01*
X399590Y355380D01*
Y353780D01*
X399990Y352180D01*
X400980Y350580D01*
X402170Y349520D01*
X403570Y349250D01*
X404960Y349780D01*
X406350Y351380D01*
G01X416180Y349250D02*
Y359920D01*
G01Y357780D02*
X417180Y358850D01*
X418170Y359650D01*
X419570Y359920D01*
X420560Y359650D01*
X421760Y358850D01*
G01X450970Y349250D02*
Y365250D01*
X448580Y362050D01*
G01Y349250D02*
X453360D01*
G01X466970Y348720D02*
X466570Y348980D01*
Y349520D01*
X466970Y349780D01*
X467370Y349520D01*
Y348980D01*
X466970Y348720D01*
G01X482970Y365250D02*
X481380Y364720D01*
X480180Y363380D01*
X479390Y361780D01*
X478790Y359650D01*
X478590Y357250D01*
X478790Y354850D01*
X479390Y352720D01*
X480180Y351120D01*
X481380Y349780D01*
X482970Y349250D01*
X484560Y349780D01*
X485760Y351120D01*
X486550Y352720D01*
X487150Y354850D01*
X487350Y357250D01*
X487150Y359650D01*
X486550Y361780D01*
X485760Y363380D01*
X484560Y364720D01*
X482970Y365250D01*
G54D13*
G01X345270Y368300D02*
Y387350D01*
X350960D01*
X352850Y386400D01*
X354280Y384180D01*
X354750Y381640D01*
X354280Y379100D01*
X353090Y377190D01*
X350960Y376240D01*
X345270D01*
G01X364320Y368300D02*
Y387350D01*
X370240D01*
X372140Y386400D01*
X373330Y385130D01*
X373800Y382590D01*
X373330Y380050D01*
X371900Y378460D01*
X370240Y377510D01*
X364320D01*
G01X370240D02*
X373800Y368300D01*
G01X388110D02*
X386210Y368620D01*
X384560Y369890D01*
X383130Y371790D01*
X382180Y374010D01*
X381710Y376550D01*
Y379100D01*
X382180Y381640D01*
X383130Y383860D01*
X384560Y385760D01*
X386210Y387030D01*
X388110Y387350D01*
X390010Y387030D01*
X391660Y385760D01*
X393090Y383860D01*
X394040Y381640D01*
X394510Y379100D01*
Y376550D01*
X394040Y374010D01*
X393090Y371790D01*
X391660Y369890D01*
X390010Y368620D01*
X388110Y368300D01*
G01X407160Y387350D02*
Y368300D01*
G01X401710Y387350D02*
X412610D01*
G01X426210Y368300D02*
X424310Y368620D01*
X422660Y369890D01*
X421230Y371790D01*
X420280Y374010D01*
X419810Y376550D01*
Y379100D01*
X420280Y381640D01*
X421230Y383860D01*
X422660Y385760D01*
X424310Y387030D01*
X426210Y387350D01*
X428110Y387030D01*
X429760Y385760D01*
X431190Y383860D01*
X432140Y381640D01*
X432610Y379100D01*
Y376550D01*
X432140Y374010D01*
X431190Y371790D01*
X429760Y369890D01*
X428110Y368620D01*
X426210Y368300D01*
G01X446680Y377820D02*
X451420D01*
Y372110D01*
X450000Y370200D01*
X448340Y368930D01*
X445970Y368300D01*
X443600Y368930D01*
X441940Y370200D01*
X440520Y372110D01*
X439570Y374330D01*
X439100Y376870D01*
Y379100D01*
X439570Y381000D01*
X440520Y383220D01*
X441940Y385130D01*
X443360Y386400D01*
X445260Y387350D01*
X446920D01*
X448810Y386720D01*
X450240Y385440D01*
G01X469050Y368300D02*
X459570D01*
Y387350D01*
X469050D01*
G01X465260Y378140D02*
X459570D01*
G01X477910Y368300D02*
Y387350D01*
X488810Y368300D01*
Y387350D01*
G54D14*
G01X75000Y361300D02*
X77400D01*
G01X75000Y375300D02*
X77400D01*
G01X177150Y77400D02*
Y75000D01*
G01X191150Y77400D02*
Y75000D01*
G01Y138500D02*
Y140900D01*
G01X177150Y138500D02*
Y140900D01*
G01X272600Y131900D02*
Y147900D01*
X235400D01*
Y145300D01*
G01Y83200D02*
Y80700D01*
X272600D01*
Y95600D01*
G01X226550Y203200D02*
X233350D01*
Y204500D01*
G01Y328900D02*
Y330200D01*
X226550D01*
G01X342740Y177650D02*
X354200D01*
Y63650D01*
X342740D01*
G01X317660D02*
X306200D01*
Y177650D01*
X317660D01*
G01X318700Y361300D02*
X316300D01*
G01X318700Y375300D02*
X316300D01*
G01X381650Y81350D02*
Y83750D01*
G01X367650Y81350D02*
Y83750D01*
G01Y159950D02*
Y157550D01*
G01X381650Y159950D02*
Y157550D01*
G01X419750Y309950D02*
Y312350D01*
G01X405750Y309950D02*
Y312350D01*
M02*
