G04 ================== begin FILE IDENTIFICATION RECORD ==================*
G04 Layout Name:  E:/source/repos/PCB/allegro/PROTOGEN.brd*
G04 Film Name:    Sold_TOP*
G04 File Format:  Gerber RS274X*
G04 File Origin:  Cadence Allegro 16.6-2015-S108*
G04 Origin Date:  Tue Aug 03 00:46:39 2021*
G04 *
G04 Layer:  VIA CLASS/SOLDERMASK_TOP*
G04 Layer:  PIN/SOLDERMASK_TOP*
G04 Layer:  BOARD GEOMETRY/OUTLINE*
G04 *
G04 Offset:    (0.000 0.000)*
G04 Mirror:    No*
G04 Mode:      Positive*
G04 Rotation:  0*
G04 FullContactRelief:  No*
G04 UndefLineWidth:     0.100*
G04 ================== end FILE IDENTIFICATION RECORD ====================*
%FSLAX34Y34*MOMM*%
%IR0*IPPOS*OFA0.00000B0.00000*MIA0B0*SFA1.00000B1.00000*%
%ADD15R,2.3X.5*%
%ADD16C,1.118*%
%ADD14C,1.905*%
%ADD10C,3.683*%
%AMMACRO18*
4,1,40,-.655,-.367,
-.655,.367,
-.653449,.38407,
-.648957,.400611,
-.641662,.416121,
-.631784,.430128,
-.619623,.442207,
-.60555,.451991,
-.589992,.459183,
-.573421,.463563,
-.557,.465,
.557,.465,
.57407,.463449,
.590611,.458957,
.606121,.451662,
.620128,.441784,
.632207,.429623,
.641991,.41555,
.649183,.399992,
.653563,.383421,
.655,.367,
.655,-.367,
.653449,-.38407,
.648957,-.400611,
.641662,-.416121,
.631784,-.430128,
.619623,-.442207,
.60555,-.451991,
.589992,-.459183,
.573421,-.463563,
.557,-.465,
-.557,-.465,
-.57407,-.463449,
-.590611,-.458957,
-.606121,-.451662,
-.620128,-.441784,
-.632207,-.429623,
-.641991,-.41555,
-.649183,-.399992,
-.653563,-.383421,
-.655,-.367,
0.0*
%
%ADD18MACRO18*%
%ADD23R,.457X1.778*%
%ADD21R,1.778X.457*%
%ADD12R,1.X1.3*%
%ADD20R,1.3X1.*%
%ADD17R,1.42X1.*%
%ADD13R,1.X1.42*%
%ADD11R,2.5X2.*%
%ADD22R,2.X5.5*%
%AMMACRO19*
4,1,40,-.655,-1.522,
-.655,1.522,
-.653384,1.539124,
-.648819,1.555708,
-.641443,1.571247,
-.631481,1.585269,
-.619236,1.597348,
-.605079,1.607117,
-.58944,1.61428,
-.572796,1.618618,
-.557,1.62,
.557,1.62,
.574124,1.618384,
.590708,1.613819,
.606247,1.606443,
.620269,1.596481,
.632348,1.584236,
.642117,1.570079,
.64928,1.55444,
.653618,1.537796,
.655,1.522,
.655,-1.522,
.653384,-1.539124,
.648819,-1.555708,
.641443,-1.571247,
.631481,-1.585269,
.619236,-1.597348,
.605079,-1.607117,
.58944,-1.61428,
.572796,-1.618618,
.557,-1.62,
-.557,-1.62,
-.574124,-1.618384,
-.590708,-1.613819,
-.606247,-1.606443,
-.620269,-1.596481,
-.632348,-1.584236,
-.642117,-1.570079,
-.64928,-1.55444,
-.653618,-1.537796,
-.655,-1.522,
0.0*
%
%ADD19MACRO19*%
%ADD24C,.1*%
G75*
%LPD*%
G75*
G54D10*
X25000Y25000D03*
Y395000D03*
X525000Y25000D03*
Y395000D03*
G54D11*
X22500Y63400D03*
Y152400D03*
X77500Y63400D03*
Y152400D03*
G54D20*
X233350Y214200D03*
Y289200D03*
Y274200D03*
Y259200D03*
Y244200D03*
Y229200D03*
Y319200D03*
Y304200D03*
G54D12*
X53350Y203200D03*
X38350D03*
Y330200D03*
X53350D03*
X128350Y203200D03*
X113350D03*
X98350D03*
X83350D03*
X68350D03*
Y330200D03*
X83350D03*
X98350D03*
X113350D03*
X128350D03*
X158350Y203200D03*
X143350D03*
X218350D03*
X203350D03*
X188350D03*
X173350D03*
X143350Y330200D03*
X158350D03*
X173350D03*
X188350D03*
X203350D03*
X218350D03*
G54D21*
X291550Y245050D03*
Y253050D03*
Y261050D03*
Y269050D03*
Y277050D03*
Y285050D03*
Y293050D03*
Y301050D03*
X381550Y285050D03*
Y277050D03*
Y269050D03*
Y261050D03*
Y253050D03*
Y245050D03*
Y301050D03*
Y293050D03*
G54D22*
X330200Y73150D03*
Y168150D03*
G54D13*
X66850Y368300D03*
X85550D03*
X308150D03*
X326850D03*
G54D23*
X364550Y228050D03*
X356550D03*
X348550D03*
X340550D03*
X332550D03*
X324550D03*
X316550D03*
X308550D03*
Y318050D03*
X316550D03*
X324550D03*
X332550D03*
X340550D03*
X348550D03*
X356550D03*
X364550D03*
G54D14*
X139700Y63500D03*
Y88900D03*
Y127000D03*
Y152400D03*
Y368300D03*
X114300D03*
X171450D03*
X196850D03*
X222250D03*
X254000D03*
X279400D03*
X450850Y63500D03*
Y88900D03*
Y114300D03*
Y139700D03*
Y215900D03*
Y241300D03*
Y266700D03*
Y292100D03*
X501650Y63500D03*
X476250D03*
X501650Y88900D03*
Y114300D03*
Y139700D03*
X476250Y88900D03*
Y114300D03*
Y139700D03*
X501650Y190500D03*
Y215900D03*
Y241300D03*
Y266700D03*
Y292100D03*
G54D24*
G01X0Y0D02*
Y420000D01*
X550000D01*
Y0D01*
X0D01*
G54D15*
X77500Y91900D03*
Y99900D03*
Y107900D03*
Y115900D03*
Y123900D03*
G54D16*
X101600Y91900D03*
X85550Y349250D03*
X184150Y50800D03*
X205700Y137200D03*
X218350Y184150D03*
X184150Y165100D03*
X203350Y228450D03*
X203200Y285750D03*
X217000Y316400D03*
X203710Y297940D03*
X292100Y184150D03*
X266700Y269050D03*
Y304800D03*
X304800Y196850D03*
X355600Y277050D03*
X323850Y292100D03*
X311150Y298450D03*
X412750Y63500D03*
X374650Y120650D03*
X393700Y114300D03*
X401320Y88900D03*
X400050Y320500D03*
G54D17*
X184150Y66850D03*
Y85550D03*
Y130350D03*
Y149050D03*
X374650Y91900D03*
Y73200D03*
Y149400D03*
Y168100D03*
X412750Y320500D03*
Y301800D03*
G54D18*
X220550Y91400D03*
Y114300D03*
Y137200D03*
G54D19*
X287450Y114300D03*
M02*
