G04 ================== begin FILE IDENTIFICATION RECORD ==================*
G04 Layout Name:  E:/source/repos/PCB/allegro/PROTOGEN.brd*
G04 Film Name:    TOP*
G04 File Format:  Gerber RS274X*
G04 File Origin:  Cadence Allegro 16.6-2015-S108*
G04 Origin Date:  Thu Aug 05 20:57:01 2021*
G04 *
G04 Layer:  ETCH/TOP*
G04 Layer:  PIN/TOP*
G04 Layer:  VIA CLASS/TOP*
G04 *
G04 Offset:    (0.000 0.000)*
G04 Mirror:    No*
G04 Mode:      Positive*
G04 Rotation:  0*
G04 FullContactRelief:  No*
G04 UndefLineWidth:     0.010*
G04 ================== end FILE IDENTIFICATION RECORD ====================*
%FSLAX34Y34*MOMM*%
%IR0*IPPOS*OFA0.00000B0.00000*MIA0B0*SFA1.00000B1.00000*%
%ADD16R,2.3X.5*%
%ADD24R,.33X1.524*%
%ADD22R,1.524X.33*%
%ADD15C,1.524*%
%AMMACRO19*
4,1,40,-.655,-.367,
-.655,.367,
-.653449,.38407,
-.648957,.400611,
-.641662,.416121,
-.631784,.430128,
-.619623,.442207,
-.60555,.451991,
-.589992,.459183,
-.573421,.463563,
-.557,.465,
.557,.465,
.57407,.463449,
.590611,.458957,
.606121,.451662,
.620128,.441784,
.632207,.429623,
.641991,.41555,
.649183,.399992,
.653563,.383421,
.655,.367,
.655,-.367,
.653449,-.38407,
.648957,-.400611,
.641662,-.416121,
.631784,-.430128,
.619623,-.442207,
.60555,-.451991,
.589992,-.459183,
.573421,-.463563,
.557,-.465,
-.557,-.465,
-.57407,-.463449,
-.590611,-.458957,
-.606121,-.451662,
-.620128,-.441784,
-.632207,-.429623,
-.641991,-.41555,
-.649183,-.399992,
-.653563,-.383421,
-.655,-.367,
0.0*
%
%ADD19MACRO19*%
%ADD13R,1.X1.3*%
%ADD21R,1.3X1.*%
%ADD18R,1.42X1.*%
%ADD14R,1.X1.42*%
%ADD11R,2.5X2.*%
%ADD23R,2.X5.5*%
%ADD17C,.61*%
%ADD12C,.9*%
%ADD10C,.635*%
%AMMACRO20*
4,1,40,-.655,-1.522,
-.655,1.522,
-.653384,1.539124,
-.648819,1.555708,
-.641443,1.571247,
-.631481,1.585269,
-.619236,1.597348,
-.605079,1.607117,
-.58944,1.61428,
-.572796,1.618618,
-.557,1.62,
.557,1.62,
.574124,1.618384,
.590708,1.613819,
.606247,1.606443,
.620269,1.596481,
.632348,1.584236,
.642117,1.570079,
.64928,1.55444,
.653618,1.537796,
.655,1.522,
.655,-1.522,
.653384,-1.539124,
.648819,-1.555708,
.641443,-1.571247,
.631481,-1.585269,
.619236,-1.597348,
.605079,-1.607117,
.58944,-1.61428,
.572796,-1.618618,
.557,-1.62,
-.557,-1.62,
-.574124,-1.618384,
-.590708,-1.613819,
-.606247,-1.606443,
-.620269,-1.596481,
-.632348,-1.584236,
-.642117,-1.570079,
-.64928,-1.55444,
-.653618,-1.537796,
-.655,-1.522,
0.0*
%
%ADD20MACRO20*%
%ADD25C,.5*%
%ADD26C,.254*%
G75*
%LPD*%
G75*
G54D10*
X25000Y25000D03*
Y395000D03*
X525000Y25000D03*
Y395000D03*
G54D20*
X287450Y114300D03*
G54D11*
X22500Y63400D03*
Y152400D03*
X77500Y63400D03*
Y152400D03*
G54D12*
X52000Y85900D03*
Y129900D03*
G54D21*
X233350Y214200D03*
Y289200D03*
Y274200D03*
Y259200D03*
Y244200D03*
Y229200D03*
Y319200D03*
Y304200D03*
G54D13*
X53350Y203200D03*
X38350D03*
Y330200D03*
X53350D03*
X128350Y203200D03*
X113350D03*
X98350D03*
X83350D03*
X68350D03*
Y330200D03*
X83350D03*
X98350D03*
X113350D03*
X128350D03*
X158350Y203200D03*
X143350D03*
X218350D03*
X203350D03*
X188350D03*
X173350D03*
X143350Y330200D03*
X158350D03*
X173350D03*
X188350D03*
X203350D03*
X218350D03*
G54D22*
X291550Y245050D03*
Y253050D03*
Y261050D03*
Y269050D03*
Y277050D03*
Y285050D03*
Y293050D03*
Y301050D03*
X381550Y285050D03*
Y277050D03*
Y269050D03*
Y261050D03*
Y253050D03*
Y245050D03*
Y301050D03*
Y293050D03*
G54D23*
X330200Y73150D03*
Y168150D03*
G54D14*
X66850Y368300D03*
X85550D03*
X308150D03*
X326850D03*
G54D15*
X139700Y63500D03*
Y88900D03*
Y127000D03*
Y152400D03*
Y368300D03*
X114300D03*
X171450D03*
X196850D03*
X222250D03*
X254000D03*
X279400D03*
X450850Y63500D03*
Y88900D03*
Y114300D03*
Y139700D03*
Y215900D03*
Y241300D03*
Y266700D03*
Y292100D03*
X501650Y63500D03*
X476250D03*
X501650Y88900D03*
Y114300D03*
Y139700D03*
X476250Y88900D03*
Y114300D03*
Y139700D03*
X501650Y190500D03*
Y215900D03*
Y241300D03*
Y266700D03*
Y292100D03*
G54D24*
X364550Y228050D03*
X356550D03*
X348550D03*
X340550D03*
X332550D03*
X324550D03*
X316550D03*
X308550D03*
Y318050D03*
X316550D03*
X324550D03*
X332550D03*
X340550D03*
X348550D03*
X356550D03*
X364550D03*
G54D25*
G01X184150Y85550D02*
X170100D01*
X165100Y80550D01*
Y69850D01*
X158750Y63500D01*
X139700D01*
G01X77500Y123900D02*
X109300D01*
X114300Y118900D01*
Y68500D01*
X119300Y63500D01*
X139700D01*
G01X77500Y91900D02*
X101600D01*
G01X139700Y127000D02*
X143050Y130350D01*
X184150D01*
G01X85550Y368300D02*
Y349250D01*
G01X184150Y66850D02*
Y50800D01*
G01X220550Y137200D02*
X205700D01*
G01X184150Y85550D02*
X199850D01*
X205700Y91400D01*
X220550D01*
G01X184150Y130350D02*
X193500D01*
X209550Y114300D01*
X220550D01*
G01X184150Y149050D02*
Y165100D01*
G01X203350Y203200D02*
Y163750D01*
X208350Y158750D01*
X228600D01*
X234950Y152400D01*
Y120650D01*
X228600Y114300D01*
X220550D01*
G01X203350Y203200D02*
Y228450D01*
G01X218350Y330200D02*
X217000Y328850D01*
Y316400D01*
G01X501650Y63500D02*
Y57160D01*
X482590Y38100D01*
X227250D01*
X220550Y44800D01*
Y91400D01*
G01X291550Y261050D02*
X270150D01*
X270060Y260960D01*
X260960D01*
X249000Y249000D01*
Y102950D01*
X237450Y91400D01*
X220550D01*
G01X218350Y203200D02*
Y184150D01*
G01X291550Y269050D02*
X266700D01*
G01D02*
Y279400D01*
X272350Y285050D01*
X291550D01*
G01Y277050D02*
X318900D01*
X334900Y261050D01*
G01X291550D02*
X334900D01*
G01X233350Y319200D02*
X230550Y316400D01*
X217000D01*
G01X381550Y277050D02*
X355600D01*
G01X334900Y261050D02*
X342900Y253050D01*
X381550D01*
G01X501650Y190500D02*
X508010D01*
X514350Y196840D01*
Y351310D01*
X497360Y368300D01*
X326850D01*
G01X374650Y149400D02*
Y120650D01*
G01D02*
Y91900D01*
G01X412750Y307800D02*
Y323850D01*
G01X501650Y63500D02*
Y88900D01*
G01Y139700D02*
Y190500D01*
G01Y114300D02*
Y139700D01*
G01Y88900D02*
Y114300D01*
G01X450850Y241300D02*
X469900D01*
X476250Y234950D01*
Y196850D01*
X482600Y190500D01*
X501650D01*
G54D16*
X77500Y91900D03*
Y99900D03*
Y107900D03*
Y115900D03*
Y123900D03*
G54D26*
G01X203200Y285750D02*
X57150D01*
X53350Y281950D01*
Y203200D01*
G01X203710Y297940D02*
X43940D01*
X38350Y292350D01*
Y203200D01*
G01Y330200D02*
Y346710D01*
X40890Y349250D01*
X64310D01*
X66850Y351790D01*
Y368300D01*
G01X114300D02*
Y384810D01*
X111760Y387350D01*
X69850D01*
X66850Y384350D01*
Y368300D01*
G01X196850D02*
Y349240D01*
X203190Y342900D01*
X266700D01*
X273050Y336550D01*
Y311150D01*
X283150Y301050D01*
X291550D01*
G01Y253050D02*
X272100D01*
X266700Y247650D01*
Y165620D01*
X269250Y163070D01*
X302260D01*
X304800Y160530D01*
Y76200D01*
X307850Y73150D01*
X330200D01*
G01X291550Y245050D02*
X283270D01*
X273050Y234830D01*
Y171460D01*
X276360Y168150D01*
X330200D01*
G01X292100Y184150D02*
Y196850D01*
X308550Y213300D01*
Y228050D01*
G01X266700Y304800D02*
Y298440D01*
X272090Y293050D01*
X291550D01*
G01X308550Y318050D02*
Y339150D01*
X298450Y349250D01*
X228600D01*
X222250Y355600D01*
Y368300D01*
G01X279400D02*
X308150D01*
G01X374650Y73200D02*
X374600Y73150D01*
X330200D01*
G01X316550Y228050D02*
Y214110D01*
X304800Y202360D01*
Y196850D01*
G01X374650Y168100D02*
X330250D01*
X330200Y168150D01*
G01X412750Y63500D02*
Y207010D01*
X403860Y215900D01*
X351090D01*
X348550Y218440D01*
Y228050D01*
G01X393700Y114300D02*
Y196860D01*
X387360Y203200D01*
X338900D01*
X332550Y209550D01*
Y228050D01*
G01X401320Y88900D02*
Y201930D01*
X393700Y209550D01*
X343090D01*
X340550Y212090D01*
Y228050D01*
G01X450850Y139700D02*
X425440D01*
X419100Y146040D01*
Y215900D01*
X412750Y222250D01*
X377190D01*
X374650Y224790D01*
Y236940D01*
X370990Y240600D01*
X327090D01*
X324550Y238060D01*
Y228050D01*
G01X323850Y292100D02*
X324550Y292800D01*
Y318050D01*
G01X348550D02*
Y340350D01*
X351100Y342900D01*
X429250D01*
X431800Y340350D01*
Y269250D01*
X434350Y266700D01*
X450850D01*
G01Y292100D02*
Y346710D01*
X448310Y349250D01*
X343090D01*
X340550Y346710D01*
Y318050D01*
G01X316550D02*
Y303850D01*
X311150Y298450D01*
G01X332550Y318050D02*
Y334200D01*
X308150Y358600D01*
Y368300D01*
G01X412750Y289100D02*
Y279410D01*
X402390Y269050D01*
X381550D01*
G54D17*
X101600Y91900D03*
X85550Y349250D03*
X184150Y50800D03*
X205700Y137200D03*
X218350Y184150D03*
X184150Y165100D03*
X203350Y228450D03*
X203200Y285750D03*
X217000Y316400D03*
X203710Y297940D03*
X292100Y184150D03*
X266700Y269050D03*
Y304800D03*
X304800Y196850D03*
X355600Y277050D03*
X323850Y292100D03*
X311150Y298450D03*
X412750Y63500D03*
X374650Y120650D03*
X393700Y114300D03*
X401320Y88900D03*
X412750Y323850D03*
G54D18*
X184150Y66850D03*
Y85550D03*
Y130350D03*
Y149050D03*
X374650Y91900D03*
Y73200D03*
Y149400D03*
Y168100D03*
X412750Y289100D03*
Y307800D03*
G54D19*
X220550Y91400D03*
Y114300D03*
Y137200D03*
M02*
